<mxfile host="Electron" modified="2024-06-15T12:06:29.765Z" agent="Mozilla/5.0 (Windows NT 10.0; Win64; x64) AppleWebKit/537.36 (KHTML, like Gecko) draw.io/24.5.3 Chrome/124.0.6367.207 Electron/30.0.6 Safari/537.36" etag="v_oqol3Riik_TKwUrceX" version="24.5.3" type="device">
  <diagram id="C5RBs43oDa-KdzZeNtuy" name="Page-1">
    <mxGraphModel dx="794" dy="605" grid="1" gridSize="10" guides="1" tooltips="1" connect="1" arrows="1" fold="1" page="1" pageScale="1" pageWidth="827" pageHeight="1169" background="none" math="0" shadow="0">
      <root>
        <mxCell id="WIyWlLk6GJQsqaUBKTNV-0" />
        <mxCell id="WIyWlLk6GJQsqaUBKTNV-1" parent="WIyWlLk6GJQsqaUBKTNV-0" />
        <mxCell id="A_alRHqpntYgNKWjDVd--59" value="users" style="shape=table;startSize=30;container=1;collapsible=0;childLayout=tableLayout;" vertex="1" parent="WIyWlLk6GJQsqaUBKTNV-1">
          <mxGeometry x="90" y="50" width="120" height="180" as="geometry" />
        </mxCell>
        <mxCell id="A_alRHqpntYgNKWjDVd--60" value="" style="shape=tableRow;horizontal=0;startSize=0;swimlaneHead=0;swimlaneBody=0;strokeColor=inherit;top=0;left=0;bottom=0;right=0;collapsible=0;dropTarget=0;fillColor=none;points=[[0,0.5],[1,0.5]];portConstraint=eastwest;" vertex="1" parent="A_alRHqpntYgNKWjDVd--59">
          <mxGeometry y="30" width="120" height="27" as="geometry" />
        </mxCell>
        <mxCell id="A_alRHqpntYgNKWjDVd--61" value="&lt;b&gt;&lt;font style=&quot;font-size: 14px;&quot;&gt;PK&lt;/font&gt;&lt;/b&gt;" style="shape=partialRectangle;html=1;whiteSpace=wrap;connectable=0;strokeColor=inherit;overflow=hidden;fillColor=none;top=0;left=0;bottom=0;right=0;pointerEvents=1;" vertex="1" parent="A_alRHqpntYgNKWjDVd--60">
          <mxGeometry width="40" height="27" as="geometry">
            <mxRectangle width="40" height="27" as="alternateBounds" />
          </mxGeometry>
        </mxCell>
        <mxCell id="A_alRHqpntYgNKWjDVd--62" value="&lt;b&gt;&lt;u&gt;&lt;font style=&quot;font-size: 14px;&quot;&gt;id&lt;/font&gt;&lt;/u&gt;&lt;/b&gt;" style="shape=partialRectangle;html=1;whiteSpace=wrap;connectable=0;strokeColor=inherit;overflow=hidden;fillColor=none;top=0;left=0;bottom=0;right=0;pointerEvents=1;align=left;" vertex="1" parent="A_alRHqpntYgNKWjDVd--60">
          <mxGeometry x="40" width="80" height="27" as="geometry">
            <mxRectangle width="80" height="27" as="alternateBounds" />
          </mxGeometry>
        </mxCell>
        <mxCell id="A_alRHqpntYgNKWjDVd--63" value="" style="shape=tableRow;horizontal=0;startSize=0;swimlaneHead=0;swimlaneBody=0;strokeColor=inherit;top=0;left=0;bottom=0;right=0;collapsible=0;dropTarget=0;fillColor=none;points=[[0,0.5],[1,0.5]];portConstraint=eastwest;" vertex="1" parent="A_alRHqpntYgNKWjDVd--59">
          <mxGeometry y="57" width="120" height="123" as="geometry" />
        </mxCell>
        <mxCell id="A_alRHqpntYgNKWjDVd--64" value="" style="shape=partialRectangle;html=1;whiteSpace=wrap;connectable=0;strokeColor=inherit;overflow=hidden;fillColor=none;top=0;left=0;bottom=0;right=0;pointerEvents=1;" vertex="1" parent="A_alRHqpntYgNKWjDVd--63">
          <mxGeometry width="40" height="123" as="geometry">
            <mxRectangle width="40" height="123" as="alternateBounds" />
          </mxGeometry>
        </mxCell>
        <mxCell id="A_alRHqpntYgNKWjDVd--65" value="&lt;div style=&quot;font-size: 14px;&quot;&gt;&lt;div style=&quot;&quot;&gt;&lt;span style=&quot;background-color: initial;&quot;&gt;nama&lt;/span&gt;&lt;/div&gt;&lt;span style=&quot;background-color: initial;&quot;&gt;&lt;div style=&quot;&quot;&gt;&lt;span style=&quot;background-color: initial;&quot;&gt;alamat&lt;/span&gt;&lt;/div&gt;&lt;/span&gt;&lt;span style=&quot;background-color: initial;&quot;&gt;&lt;div style=&quot;&quot;&gt;&lt;span style=&quot;background-color: initial;&quot;&gt;tanggal lahir&lt;/span&gt;&lt;/div&gt;&lt;/span&gt;&lt;span style=&quot;background-color: initial;&quot;&gt;&lt;div style=&quot;&quot;&gt;&lt;span style=&quot;background-color: initial;&quot;&gt;status_user&lt;/span&gt;&lt;/div&gt;&lt;/span&gt;&lt;span style=&quot;background-color: initial;&quot;&gt;&lt;div style=&quot;&quot;&gt;&lt;span style=&quot;background-color: initial;&quot;&gt;gender&lt;/span&gt;&lt;/div&gt;&lt;/span&gt;&lt;span style=&quot;background-color: initial;&quot;&gt;&lt;div style=&quot;&quot;&gt;&lt;span style=&quot;background-color: initial;&quot;&gt;created_at&lt;/span&gt;&lt;/div&gt;&lt;/span&gt;&lt;span style=&quot;background-color: initial;&quot;&gt;&lt;div style=&quot;&quot;&gt;&lt;span style=&quot;background-color: initial;&quot;&gt;updated_at&lt;/span&gt;&lt;/div&gt;&lt;/span&gt;&lt;/div&gt;" style="shape=partialRectangle;html=1;whiteSpace=wrap;connectable=0;strokeColor=inherit;overflow=hidden;fillColor=none;top=0;left=0;bottom=0;right=0;pointerEvents=1;align=left;" vertex="1" parent="A_alRHqpntYgNKWjDVd--63">
          <mxGeometry x="40" width="80" height="123" as="geometry">
            <mxRectangle width="80" height="123" as="alternateBounds" />
          </mxGeometry>
        </mxCell>
        <mxCell id="A_alRHqpntYgNKWjDVd--66" value="shopay" style="shape=table;startSize=30;container=1;collapsible=0;childLayout=tableLayout;" vertex="1" parent="WIyWlLk6GJQsqaUBKTNV-1">
          <mxGeometry x="520" y="170" width="196" height="160" as="geometry" />
        </mxCell>
        <mxCell id="A_alRHqpntYgNKWjDVd--67" value="" style="shape=tableRow;horizontal=0;startSize=0;swimlaneHead=0;swimlaneBody=0;strokeColor=inherit;top=0;left=0;bottom=0;right=0;collapsible=0;dropTarget=0;fillColor=none;points=[[0,0.5],[1,0.5]];portConstraint=eastwest;" vertex="1" parent="A_alRHqpntYgNKWjDVd--66">
          <mxGeometry y="30" width="196" height="37" as="geometry" />
        </mxCell>
        <mxCell id="A_alRHqpntYgNKWjDVd--68" value="&lt;b style=&quot;font-size: 14px;&quot;&gt;&lt;font style=&quot;font-size: 14px;&quot;&gt;PK&lt;/font&gt;&lt;/b&gt;&lt;div style=&quot;font-size: 14px;&quot;&gt;&lt;b style=&quot;&quot;&gt;&lt;font style=&quot;font-size: 14px;&quot;&gt;FK&lt;/font&gt;&lt;/b&gt;&lt;/div&gt;" style="shape=partialRectangle;html=1;whiteSpace=wrap;connectable=0;strokeColor=inherit;overflow=hidden;fillColor=none;top=0;left=0;bottom=0;right=0;pointerEvents=1;" vertex="1" parent="A_alRHqpntYgNKWjDVd--67">
          <mxGeometry width="66" height="37" as="geometry">
            <mxRectangle width="66" height="37" as="alternateBounds" />
          </mxGeometry>
        </mxCell>
        <mxCell id="A_alRHqpntYgNKWjDVd--69" value="&lt;b&gt;&lt;u&gt;&lt;font style=&quot;font-size: 14px;&quot;&gt;id&lt;/font&gt;&lt;/u&gt;&lt;/b&gt;&lt;div&gt;&lt;b&gt;&lt;u&gt;&lt;font style=&quot;font-size: 14px;&quot;&gt;user_id&lt;/font&gt;&lt;/u&gt;&lt;/b&gt;&lt;/div&gt;" style="shape=partialRectangle;html=1;whiteSpace=wrap;connectable=0;strokeColor=inherit;overflow=hidden;fillColor=none;top=0;left=0;bottom=0;right=0;pointerEvents=1;align=left;" vertex="1" parent="A_alRHqpntYgNKWjDVd--67">
          <mxGeometry x="66" width="130" height="37" as="geometry">
            <mxRectangle width="130" height="37" as="alternateBounds" />
          </mxGeometry>
        </mxCell>
        <mxCell id="A_alRHqpntYgNKWjDVd--70" value="" style="shape=tableRow;horizontal=0;startSize=0;swimlaneHead=0;swimlaneBody=0;strokeColor=inherit;top=0;left=0;bottom=0;right=0;collapsible=0;dropTarget=0;fillColor=none;points=[[0,0.5],[1,0.5]];portConstraint=eastwest;" vertex="1" parent="A_alRHqpntYgNKWjDVd--66">
          <mxGeometry y="67" width="196" height="93" as="geometry" />
        </mxCell>
        <mxCell id="A_alRHqpntYgNKWjDVd--71" value="" style="shape=partialRectangle;html=1;whiteSpace=wrap;connectable=0;strokeColor=inherit;overflow=hidden;fillColor=none;top=0;left=0;bottom=0;right=0;pointerEvents=1;" vertex="1" parent="A_alRHqpntYgNKWjDVd--70">
          <mxGeometry width="66" height="93" as="geometry">
            <mxRectangle width="66" height="93" as="alternateBounds" />
          </mxGeometry>
        </mxCell>
        <mxCell id="A_alRHqpntYgNKWjDVd--72" value="&lt;div style=&quot;font-size: 14px;&quot;&gt;&lt;div style=&quot;&quot;&gt;product&lt;/div&gt;&lt;div style=&quot;&quot;&gt;product_type&lt;/div&gt;&lt;div style=&quot;&quot;&gt;product_description&lt;/div&gt;&lt;div style=&quot;&quot;&gt;merk&lt;/div&gt;&lt;div style=&quot;&quot;&gt;payment_methods&lt;/div&gt;&lt;/div&gt;" style="shape=partialRectangle;html=1;whiteSpace=wrap;connectable=0;strokeColor=inherit;overflow=hidden;fillColor=none;top=0;left=0;bottom=0;right=0;pointerEvents=1;align=left;" vertex="1" parent="A_alRHqpntYgNKWjDVd--70">
          <mxGeometry x="66" width="130" height="93" as="geometry">
            <mxRectangle width="130" height="93" as="alternateBounds" />
          </mxGeometry>
        </mxCell>
        <mxCell id="A_alRHqpntYgNKWjDVd--73" value="users_avatars" style="shape=table;startSize=30;container=1;collapsible=0;childLayout=tableLayout;" vertex="1" parent="WIyWlLk6GJQsqaUBKTNV-1">
          <mxGeometry x="90" y="320" width="120" height="110" as="geometry" />
        </mxCell>
        <mxCell id="A_alRHqpntYgNKWjDVd--74" value="" style="shape=tableRow;horizontal=0;startSize=0;swimlaneHead=0;swimlaneBody=0;strokeColor=inherit;top=0;left=0;bottom=0;right=0;collapsible=0;dropTarget=0;fillColor=none;points=[[0,0.5],[1,0.5]];portConstraint=eastwest;" vertex="1" parent="A_alRHqpntYgNKWjDVd--73">
          <mxGeometry y="30" width="120" height="25" as="geometry" />
        </mxCell>
        <mxCell id="A_alRHqpntYgNKWjDVd--75" value="&lt;b&gt;&lt;font style=&quot;font-size: 14px;&quot;&gt;PK&lt;/font&gt;&lt;/b&gt;" style="shape=partialRectangle;html=1;whiteSpace=wrap;connectable=0;strokeColor=inherit;overflow=hidden;fillColor=none;top=0;left=0;bottom=0;right=0;pointerEvents=1;" vertex="1" parent="A_alRHqpntYgNKWjDVd--74">
          <mxGeometry width="40" height="25" as="geometry">
            <mxRectangle width="40" height="25" as="alternateBounds" />
          </mxGeometry>
        </mxCell>
        <mxCell id="A_alRHqpntYgNKWjDVd--76" value="&lt;b&gt;&lt;u&gt;&lt;font style=&quot;font-size: 14px;&quot;&gt;users_id&lt;/font&gt;&lt;/u&gt;&lt;/b&gt;" style="shape=partialRectangle;html=1;whiteSpace=wrap;connectable=0;strokeColor=inherit;overflow=hidden;fillColor=none;top=0;left=0;bottom=0;right=0;pointerEvents=1;align=left;" vertex="1" parent="A_alRHqpntYgNKWjDVd--74">
          <mxGeometry x="40" width="80" height="25" as="geometry">
            <mxRectangle width="80" height="25" as="alternateBounds" />
          </mxGeometry>
        </mxCell>
        <mxCell id="A_alRHqpntYgNKWjDVd--77" value="" style="shape=tableRow;horizontal=0;startSize=0;swimlaneHead=0;swimlaneBody=0;strokeColor=inherit;top=0;left=0;bottom=0;right=0;collapsible=0;dropTarget=0;fillColor=none;points=[[0,0.5],[1,0.5]];portConstraint=eastwest;" vertex="1" parent="A_alRHqpntYgNKWjDVd--73">
          <mxGeometry y="55" width="120" height="55" as="geometry" />
        </mxCell>
        <mxCell id="A_alRHqpntYgNKWjDVd--78" value="" style="shape=partialRectangle;html=1;whiteSpace=wrap;connectable=0;strokeColor=inherit;overflow=hidden;fillColor=none;top=0;left=0;bottom=0;right=0;pointerEvents=1;" vertex="1" parent="A_alRHqpntYgNKWjDVd--77">
          <mxGeometry width="40" height="55" as="geometry">
            <mxRectangle width="40" height="55" as="alternateBounds" />
          </mxGeometry>
        </mxCell>
        <mxCell id="A_alRHqpntYgNKWjDVd--79" value="&lt;div style=&quot;font-size: 14px;&quot;&gt;&lt;div style=&quot;&quot;&gt;url&lt;/div&gt;&lt;div style=&quot;&quot;&gt;created_at&lt;/div&gt;&lt;div style=&quot;&quot;&gt;updated_at&lt;/div&gt;&lt;/div&gt;" style="shape=partialRectangle;html=1;whiteSpace=wrap;connectable=0;strokeColor=inherit;overflow=hidden;fillColor=none;top=0;left=0;bottom=0;right=0;pointerEvents=1;align=left;" vertex="1" parent="A_alRHqpntYgNKWjDVd--77">
          <mxGeometry x="40" width="80" height="55" as="geometry">
            <mxRectangle width="80" height="55" as="alternateBounds" />
          </mxGeometry>
        </mxCell>
        <mxCell id="A_alRHqpntYgNKWjDVd--80" value="transaksi" style="shape=table;startSize=30;container=1;collapsible=0;childLayout=tableLayout;" vertex="1" parent="WIyWlLk6GJQsqaUBKTNV-1">
          <mxGeometry x="300" y="190" width="120" height="120" as="geometry" />
        </mxCell>
        <mxCell id="A_alRHqpntYgNKWjDVd--81" value="" style="shape=tableRow;horizontal=0;startSize=0;swimlaneHead=0;swimlaneBody=0;strokeColor=inherit;top=0;left=0;bottom=0;right=0;collapsible=0;dropTarget=0;fillColor=none;points=[[0,0.5],[1,0.5]];portConstraint=eastwest;" vertex="1" parent="A_alRHqpntYgNKWjDVd--80">
          <mxGeometry y="30" width="120" height="45" as="geometry" />
        </mxCell>
        <mxCell id="A_alRHqpntYgNKWjDVd--82" value="&lt;b&gt;&lt;font style=&quot;font-size: 14px;&quot;&gt;PK&lt;/font&gt;&lt;/b&gt;" style="shape=partialRectangle;html=1;whiteSpace=wrap;connectable=0;strokeColor=inherit;overflow=hidden;fillColor=none;top=0;left=0;bottom=0;right=0;pointerEvents=1;" vertex="1" parent="A_alRHqpntYgNKWjDVd--81">
          <mxGeometry width="40" height="45" as="geometry">
            <mxRectangle width="40" height="45" as="alternateBounds" />
          </mxGeometry>
        </mxCell>
        <mxCell id="A_alRHqpntYgNKWjDVd--83" value="&lt;div&gt;&lt;b&gt;&lt;u&gt;&lt;font style=&quot;font-size: 14px;&quot;&gt;shopay_id&lt;/font&gt;&lt;/u&gt;&lt;/b&gt;&lt;/div&gt;&lt;b&gt;&lt;u&gt;&lt;font style=&quot;font-size: 14px;&quot;&gt;users_id&lt;/font&gt;&lt;/u&gt;&lt;/b&gt;" style="shape=partialRectangle;html=1;whiteSpace=wrap;connectable=0;strokeColor=inherit;overflow=hidden;fillColor=none;top=0;left=0;bottom=0;right=0;pointerEvents=1;align=left;" vertex="1" parent="A_alRHqpntYgNKWjDVd--81">
          <mxGeometry x="40" width="80" height="45" as="geometry">
            <mxRectangle width="80" height="45" as="alternateBounds" />
          </mxGeometry>
        </mxCell>
        <mxCell id="A_alRHqpntYgNKWjDVd--84" value="" style="shape=tableRow;horizontal=0;startSize=0;swimlaneHead=0;swimlaneBody=0;strokeColor=inherit;top=0;left=0;bottom=0;right=0;collapsible=0;dropTarget=0;fillColor=none;points=[[0,0.5],[1,0.5]];portConstraint=eastwest;" vertex="1" parent="A_alRHqpntYgNKWjDVd--80">
          <mxGeometry y="75" width="120" height="45" as="geometry" />
        </mxCell>
        <mxCell id="A_alRHqpntYgNKWjDVd--85" value="" style="shape=partialRectangle;html=1;whiteSpace=wrap;connectable=0;strokeColor=inherit;overflow=hidden;fillColor=none;top=0;left=0;bottom=0;right=0;pointerEvents=1;" vertex="1" parent="A_alRHqpntYgNKWjDVd--84">
          <mxGeometry width="40" height="45" as="geometry">
            <mxRectangle width="40" height="45" as="alternateBounds" />
          </mxGeometry>
        </mxCell>
        <mxCell id="A_alRHqpntYgNKWjDVd--86" value="&lt;div style=&quot;font-size: 14px;&quot;&gt;&lt;div style=&quot;&quot;&gt;&lt;span style=&quot;background-color: initial;&quot;&gt;created_at&lt;/span&gt;&lt;br&gt;&lt;/div&gt;&lt;div style=&quot;&quot;&gt;updated_at&lt;/div&gt;&lt;/div&gt;" style="shape=partialRectangle;html=1;whiteSpace=wrap;connectable=0;strokeColor=inherit;overflow=hidden;fillColor=none;top=0;left=0;bottom=0;right=0;pointerEvents=1;align=left;" vertex="1" parent="A_alRHqpntYgNKWjDVd--84">
          <mxGeometry x="40" width="80" height="45" as="geometry">
            <mxRectangle width="80" height="45" as="alternateBounds" />
          </mxGeometry>
        </mxCell>
        <mxCell id="A_alRHqpntYgNKWjDVd--89" value="" style="endArrow=classic;html=1;rounded=0;exitX=0.506;exitY=1.005;exitDx=0;exitDy=0;exitPerimeter=0;entryX=0.5;entryY=0;entryDx=0;entryDy=0;" edge="1" parent="WIyWlLk6GJQsqaUBKTNV-1" source="A_alRHqpntYgNKWjDVd--63" target="A_alRHqpntYgNKWjDVd--73">
          <mxGeometry width="50" height="50" relative="1" as="geometry">
            <mxPoint x="380" y="310" as="sourcePoint" />
            <mxPoint x="430" y="260" as="targetPoint" />
          </mxGeometry>
        </mxCell>
        <mxCell id="A_alRHqpntYgNKWjDVd--90" style="edgeStyle=orthogonalEdgeStyle;rounded=0;orthogonalLoop=1;jettySize=auto;html=1;exitX=1;exitY=0.5;exitDx=0;exitDy=0;entryX=0.5;entryY=0;entryDx=0;entryDy=0;" edge="1" parent="WIyWlLk6GJQsqaUBKTNV-1" source="A_alRHqpntYgNKWjDVd--60" target="A_alRHqpntYgNKWjDVd--66">
          <mxGeometry relative="1" as="geometry" />
        </mxCell>
        <mxCell id="A_alRHqpntYgNKWjDVd--91" value="" style="endArrow=classic;html=1;rounded=0;exitX=1;exitY=0.5;exitDx=0;exitDy=0;" edge="1" parent="WIyWlLk6GJQsqaUBKTNV-1" source="A_alRHqpntYgNKWjDVd--63">
          <mxGeometry width="50" height="50" relative="1" as="geometry">
            <mxPoint x="380" y="310" as="sourcePoint" />
            <mxPoint x="300" y="260" as="targetPoint" />
            <Array as="points">
              <mxPoint x="260" y="169" />
              <mxPoint x="260" y="210" />
              <mxPoint x="260" y="260" />
            </Array>
          </mxGeometry>
        </mxCell>
        <mxCell id="A_alRHqpntYgNKWjDVd--92" value="" style="endArrow=classic;html=1;rounded=0;exitX=0.014;exitY=0.254;exitDx=0;exitDy=0;exitPerimeter=0;" edge="1" parent="WIyWlLk6GJQsqaUBKTNV-1" source="A_alRHqpntYgNKWjDVd--70">
          <mxGeometry width="50" height="50" relative="1" as="geometry">
            <mxPoint x="520" y="257" as="sourcePoint" />
            <mxPoint x="420" y="260" as="targetPoint" />
          </mxGeometry>
        </mxCell>
      </root>
    </mxGraphModel>
  </diagram>
</mxfile>
